<svg width="42" height="42" viewBox="0 0 42 42" fill="none" xmlns="http://www.w3.org/2000/svg">
<path d="M19.8248 31.6382C18.7998 31.7309 17.9379 31.198 17.4254 30.1322C16.9362 29.1128 17.0294 28.1166 17.7282 27.213C18.5203 26.1705 19.6851 26.0546 20.8266 26.2863C21.6186 26.4485 22.3874 26.8655 23.0396 27.3289C23.8084 27.8617 23.9482 28.6495 23.5987 29.553C23.0862 30.8968 21.7817 31.6382 19.8248 31.6382Z" fill="#FFB900"/>
<path fill-rule="evenodd" clip-rule="evenodd" d="M20.8032 18.6598C20.6857 19.1582 20.5975 20.0595 20.5476 20.8648C20.5224 21.2705 20.5066 21.6577 20.5019 21.9659C20.4995 22.1198 20.4999 22.2557 20.5033 22.3651C20.5066 22.4681 20.513 22.5656 20.5277 22.6315C20.5293 22.6384 20.5311 22.6453 20.5333 22.652C20.5986 22.8542 20.7194 23.0129 20.8899 23.1128C21.0545 23.2092 21.2457 23.2394 21.4392 23.2254C21.8214 23.2222 22.1384 23.022 22.3256 22.7322C22.4709 22.5073 22.5658 22.2201 22.6412 21.9542C22.6704 21.8514 22.6963 21.7531 22.7211 21.6594C22.764 21.4972 22.8032 21.3487 22.849 21.2143C23.2972 20.0068 23.4924 18.962 23.7049 17.8245C23.7685 17.4845 23.8335 17.1362 23.9074 16.7728C23.9088 16.7657 23.9099 16.7587 23.9107 16.7515C23.9834 16.0759 24.1282 15.2989 24.2524 14.6326L24.2575 14.6049C24.3751 14.0351 24.5037 13.465 24.6335 12.8898L24.656 12.7898C24.7934 12.181 24.9313 11.5665 25.0568 10.945C25.1826 10.3475 25.2832 9.7508 25.3828 9.15942L25.3832 9.15718C25.3834 9.15607 25.3836 9.15496 25.3838 9.15385C25.3839 9.15273 25.3841 9.15161 25.3842 9.15048C25.4157 8.92299 25.3603 8.61456 25.0606 8.47441C24.7599 8.3052 24.4698 8.45215 24.3233 8.63691C24.1201 8.87316 23.9114 9.14176 23.7522 9.41555L23.7508 9.41798C23.2144 10.3669 22.8586 11.3656 22.5092 12.37L22.5089 12.3709C21.8055 14.4191 21.3035 16.5431 20.8046 18.6541L20.8032 18.6598Z" fill="#FFB900"/>
<path fill-rule="evenodd" clip-rule="evenodd" d="M12.9645 20.9103C13.2419 21.3415 13.83 22.0328 14.3756 22.6299C14.6505 22.9306 14.9186 23.2119 15.1374 23.4302C15.2467 23.5392 15.3449 23.6337 15.4262 23.7075C15.5027 23.777 15.5774 23.8404 15.6352 23.8758C15.6412 23.8795 15.6475 23.883 15.6539 23.8862C15.8452 23.9806 16.0438 24.0052 16.2347 23.9532C16.4189 23.9031 16.574 23.7878 16.6988 23.6401C16.963 23.3654 17.0397 22.9998 16.9613 22.6643C16.9005 22.4039 16.7596 22.136 16.6206 21.8968C16.5668 21.8044 16.5141 21.7173 16.4638 21.6343C16.3768 21.4907 16.2971 21.3591 16.2322 21.2328C15.6744 20.0714 15.0574 19.2038 14.3856 18.2591C14.1848 17.9768 13.9791 17.6875 13.7687 17.3815C13.7646 17.3756 13.7603 17.3699 13.7557 17.3644C13.3194 16.8414 12.8603 16.1965 12.4666 15.6433L12.4503 15.6204C12.1215 15.1393 11.8003 14.6501 11.4762 14.1565L11.4198 14.0707C11.0768 13.5484 10.73 13.0215 10.3695 12.4987C10.0266 11.9925 9.66658 11.5047 9.30981 11.0214L9.30846 11.0195C9.30779 11.0186 9.30711 11.0177 9.30643 11.0168C9.30574 11.0159 9.30505 11.015 9.30434 11.0141C9.16233 10.8331 8.90136 10.6575 8.59141 10.7735C8.25978 10.8699 8.16343 11.1791 8.19447 11.4124C8.22305 11.722 8.27117 12.0581 8.35752 12.3624L8.35831 12.3651C8.6683 13.4092 9.14003 14.3592 9.6204 15.3086C10.6063 17.2381 11.7876 19.0778 12.9613 20.9053L12.9645 20.9103Z" fill="#FFB900"/>
<path fill-rule="evenodd" clip-rule="evenodd" d="M10.641 29.8305C11.1497 29.9084 11.9973 29.9953 12.8712 30.0677C13.2798 30.0612 13.6693 30.0468 13.9786 30.0277C14.1331 30.0181 14.2693 30.0072 14.3787 29.9953C14.4817 29.984 14.5788 29.9702 14.6438 29.9505C14.6506 29.9484 14.6573 29.946 14.6639 29.9433C14.8616 29.8629 15.0113 29.7309 15.0983 29.554C15.1822 29.3833 15.1976 29.1914 15.1686 29.0006C15.1357 28.6219 14.9104 28.3232 14.6054 28.16C14.3687 28.0334 14.0734 27.9615 13.801 27.9073C13.6957 27.8864 13.5952 27.8683 13.4993 27.851C13.3334 27.821 13.1814 27.7936 13.0432 27.7586C11.798 27.4078 10.7355 27.2952 9.57867 27.1727C9.2329 27.136 8.87867 27.0985 8.50866 27.0535C8.50151 27.0526 8.49433 27.0521 8.48713 27.0519C7.80419 27.0321 7.01406 26.9487 6.33645 26.8772L6.30831 26.8743C5.72797 26.8019 5.14653 26.7185 4.55982 26.6344L4.45787 26.6198C3.83692 26.5308 3.21015 26.4417 2.57737 26.3654C1.96869 26.287 1.36271 26.2335 0.762139 26.1805L0.759865 26.1803C0.758741 26.1802 0.757616 26.1801 0.756491 26.1801C0.755352 26.18 0.754211 26.1799 0.753071 26.1798C0.522573 26.1662 0.217685 26.2451 0.100414 26.5531C-0.0459136 26.8644 0.123887 27.1406 0.320458 27.2716C0.573041 27.4548 0.858476 27.6409 1.14527 27.7775L1.14783 27.7787C2.14069 28.237 3.16941 28.5124 4.20339 28.781L4.20427 28.7812C6.31204 29.32 8.48608 29.4994 10.641 29.8305Z" fill="#FFB900"/>
<path fill-rule="evenodd" clip-rule="evenodd" d="M28.0109 21.0407C27.6081 21.3595 26.9773 22.0125 26.4363 22.6137C26.1638 22.9166 25.9101 23.2108 25.7143 23.4498C25.6166 23.5691 25.5322 23.676 25.4667 23.764C25.4051 23.8469 25.3494 23.9272 25.3199 23.988C25.3168 23.9944 25.314 24.001 25.3115 24.0076C25.2367 24.2066 25.2326 24.4056 25.3042 24.5891C25.3733 24.7662 25.5046 24.9077 25.6652 25.016C25.9671 25.249 26.3406 25.2872 26.6682 25.1752C26.9223 25.0882 27.1758 24.9213 27.4006 24.7591C27.4876 24.6964 27.5692 24.6352 27.6471 24.5769C27.7818 24.4761 27.9051 24.3837 28.0248 24.3065C29.1289 23.635 29.9332 22.9353 30.8088 22.1735C31.0705 21.9458 31.3386 21.7126 31.623 21.4729C31.6285 21.4682 31.6337 21.4634 31.6388 21.4582C32.1169 20.9728 32.7147 20.4522 33.2273 20.0058L33.2486 19.9873C33.6959 19.6125 34.1521 19.2444 34.6124 18.8729L34.6924 18.8084C35.1795 18.4152 35.6707 18.0179 36.1564 17.6074C36.6275 17.2161 37.0782 16.8097 37.5249 16.407L37.5266 16.4055C37.5275 16.4047 37.5283 16.404 37.5291 16.4032C37.53 16.4024 37.5308 16.4016 37.5316 16.4009C37.6981 16.2417 37.8467 15.9655 37.6989 15.6708C37.5683 15.3527 37.2491 15.2892 37.019 15.3439C36.7123 15.4041 36.3811 15.4863 36.0856 15.6031L36.083 15.6041C35.0707 16.0183 34.1691 16.5828 33.2691 17.1557L33.2683 17.1562C31.44 18.3302 29.7225 19.6878 28.0155 21.0371L28.0109 21.0407Z" fill="#FFB900"/>
<path fill-rule="evenodd" clip-rule="evenodd" d="M30.7503 27.3983C30.2373 27.4405 29.37 27.5593 28.5842 27.7598C28.1883 27.8609 27.8129 27.9651 27.5166 28.0554C27.3686 28.1005 27.2387 28.1427 27.1351 28.1796C27.0376 28.2144 26.9464 28.2504 26.8878 28.2846C26.8817 28.2882 26.8757 28.2921 26.8699 28.2963C26.6965 28.4203 26.5818 28.5834 26.5387 28.7755C26.4971 28.9609 26.5271 29.1511 26.6 29.3299C26.7207 29.6906 27.0098 29.9289 27.3446 30.0169C27.6045 30.0852 27.9085 30.0867 28.1861 30.0762C28.2934 30.0722 28.3954 30.0665 28.4927 30.0611C28.6611 30.0518 28.8153 30.0432 28.9579 30.0452C31.2162 29.9469 31.9151 29.8121 32.4643 29.8121C32.8092 29.7676 33.1624 29.722 33.5328 29.6801C33.54 29.6793 33.5471 29.6781 33.5541 29.6767C34.2229 29.5376 35.0108 29.4356 35.6865 29.3481L35.7146 29.3444C36.2959 29.2803 36.8809 29.2266 37.4711 29.1725L37.5737 29.1631C38.1984 29.1057 38.8288 29.0471 39.462 28.9746C40.0723 28.9099 40.6742 28.8214 41.2706 28.7338L41.2729 28.7335C41.274 28.7333 41.2751 28.7331 41.2762 28.7329C41.2774 28.7328 41.2785 28.7326 41.2796 28.7324C41.5069 28.6922 41.785 28.5448 41.8268 28.2181C41.8962 27.8815 41.6664 27.6522 41.4445 27.5704C41.156 27.4508 40.8348 27.336 40.5239 27.2696L40.5211 27.269C39.4482 27.0534 38.3833 27.024 37.3148 27.0024L37.3139 27.0024C35.1379 26.9669 33.6223 27.1459 31.4492 27.3233L30.7503 27.3983Z" fill="#FFB900"/>
</svg>
